<?xml version="1.0" encoding="UTF-8"?>
<svg
    version="1.0"
    xmlns="http://www.w3.org/2000/svg"
    xmlns:xlink="http://www.w3.org/1999/xlink"
    x="0"
    y="0"
    width="2400"
    height="1800"
    viewBox="0 0 340.000000 250.000000"
    preserveAspectRatio="xMidYMid meet"
    color-interpolation-filters="sRGB"
  >
    <defs><linearGradient id="92" x1="0%" y1="0%" x2="100%" y2="0%"><stop offset="0%" stop-color="#fa71cd"/> <stop offset="100%" stop-color="#9b59b6"/></linearGradient><linearGradient id="93" x1="0%" y1="0%" x2="100%" y2="0%"><stop offset="0%" stop-color="#f9d423"/> <stop offset="100%" stop-color="#f83600"/></linearGradient><linearGradient id="94" x1="0%" y1="0%" x2="100%" y2="0%"><stop offset="0%" stop-color="#0064d2"/> <stop offset="100%" stop-color="#1cb0f6"/></linearGradient><linearGradient id="95" x1="0%" y1="0%" x2="100%" y2="0%"><stop offset="0%" stop-color="#f00978"/> <stop offset="100%" stop-color="#3f51b1"/></linearGradient><linearGradient id="96" x1="0%" y1="0%" x2="100%" y2="0%"><stop offset="0%" stop-color="#7873f5"/> <stop offset="100%" stop-color="#ec77ab"/></linearGradient><linearGradient id="97" x1="0%" y1="0%" x2="100%" y2="0%"><stop offset="0%" stop-color="#f9d423"/> <stop offset="100%" stop-color="#e14fad"/></linearGradient><linearGradient id="98" x1="0%" y1="0%" x2="100%" y2="0%"><stop offset="0%" stop-color="#009efd"/> <stop offset="100%" stop-color="#2af598"/></linearGradient><linearGradient id="99" x1="0%" y1="0%" x2="100%" y2="0%"><stop offset="0%" stop-color="#ffcc00"/> <stop offset="100%" stop-color="#00b140"/></linearGradient><linearGradient id="100" x1="0%" y1="0%" x2="100%" y2="0%"><stop offset="0%" stop-color="#d51007"/> <stop offset="100%" stop-color="#ff8177"/></linearGradient><linearGradient id="102" x1="0%" y1="0%" x2="100%" y2="0%"><stop offset="0%" stop-color="#a2b6df"/> <stop offset="100%" stop-color="#0c3483"/></linearGradient><linearGradient id="103" x1="0%" y1="0%" x2="100%" y2="0%"><stop offset="0%" stop-color="#7ac5d8"/> <stop offset="100%" stop-color="#eea2a2"/></linearGradient><linearGradient id="104" x1="0%" y1="0%" x2="100%" y2="0%"><stop offset="0%" stop-color="#00ecbc"/> <stop offset="100%" stop-color="#007adf"/></linearGradient><linearGradient id="105" x1="0%" y1="0%" x2="100%" y2="0%"><stop offset="0%" stop-color="#b88746"/> <stop offset="100%" stop-color="#fdf5a6"/></linearGradient></defs> <g fill="#f6b91e" class="basesvg" transform="translate(96.88500213623047,102.54624938964844)"><g fill-rule="" stroke="#f6b91e" class="tp-name" transform="translate(0,0)"><g transform="scale(1)"><g><path d="M1.26-6.53C2.56-8.52 4.34-13.87 5.72-18.46 5.44-13.67 5.03-7.91 4.83-4.14L4.66-3.93C4.34-3.25 4.02-2.27 4.02-1.38 4.02-0.93 4.1-0.49 4.3-0.12 4.54 0.28 5.15 0.85 5.68 0.85 6.25 0.85 6.33 0.12 6.33-0.81 6.33-1.18 6.29-1.58 6.29-1.99 6.29-2.68 6.33-3.33 6.57-3.73 6.73-3.69 6.9-3.61 7.06-3.53 8.44-3.04 10.22-2.72 12.01-2.72 14.68-2.72 17.44-3.45 18.9-5.4 19.19-5.8 19.67-6.25 19.67-6.69 19.67-6.81 19.67-6.94 19.59-7.02 19.43-7.3 18.94-7.63 18.62-7.63 18.05-7.63 17.81-6.9 17.4-6.37 16.06-4.54 13.75-3.98 11.52-3.98 10.34-3.98 9.21-4.14 8.23-4.34 10.38-5.11 11.64-6.04 12.05-6.73 12.21-6.94 12.25-7.18 12.25-7.38 12.25-7.59 12.21-7.83 12.09-7.99 11.8-8.48 11.24-8.88 10.43-8.88 9.41-8.88 8.07-8.32 6.61-6.69 7.02-13.99 7.71-24.38 7.91-25.88L7.91-26C7.91-26.16 7.87-26.29 7.83-26.41 7.67-26.69 7.38-26.89 7.06-26.89 6.86-26.89 6.61-26.81 6.45-26.57 6.25-26.57 5.68-24.42 5.6-24.14 4.26-19.59 1.58-10.14-0.24-7.46-0.28-7.42-0.28-7.34-0.28-7.26-0.28-7.18-0.28-7.1-0.24-7.02-0.04-6.65 0.49-6.37 0.85-6.37 1.01-6.37 1.18-6.41 1.26-6.53ZM8.88-6.49C9.41-7.02 9.98-7.38 10.47-7.54 10.14-7.1 9.45-6.57 8.4-6.04 8.52-6.21 8.68-6.37 8.88-6.49ZM19.92-2.68C22.23-2.68 27.58-7.38 27.58-7.38 27.66-7.34 27.71-7.26 27.79-7.14 27.99-6.77 28.15-6.21 28.48-5.64 29.08-4.54 30.1-3.41 32.13-3.37L32.17-3.37C33.99-3.37 35.37-5.35 36.02-6.37 36.14-6.49 36.18-6.65 36.18-6.77 36.18-6.86 36.14-6.98 36.1-7.06 35.9-7.38 35.41-7.63 35.05-7.63 34.89-7.63 34.72-7.59 34.64-7.46 34.07-6.53 32.82-4.62 31.52-4.62L31.48-4.62C30.63-4.66 30.22-5.23 29.86-5.88L29.29-6.9C28.76-7.87 28.11-8.56 27.22-8.56 26.77-8.56 26.33-8.4 25.76-7.99 25.11-9.21 23.81-9.98 22.43-9.98 20.69-9.98 19.07-8.72 18.42-7.83 17.93-7.1 17.69-6.21 17.69-5.4 17.69-4.83 17.81-4.26 18.05-3.81 18.38-3.2 18.94-2.76 19.8-2.68ZM23.12-8.72C23.73-8.72 24.1-8.44 24.34-8.03 24.46-7.79 24.54-7.46 24.62-7.18 22.96-5.88 20.61-4.1 19.39-3.98 19.27-4.3 19.23-4.58 19.23-4.91 19.23-6.86 21.3-8.72 23.12-8.72ZM36.14-6.53C37.48-8.52 39.23-13.91 40.6-18.54 40.32-13.95 40-8.48 39.83-4.95 39.71-4.79 39.63-4.62 39.51-4.46 39.19-3.81 39.02-3.2 39.02-2.68 39.02-2.19 39.19-1.74 39.35-1.42 39.71-0.73 40.32-0.41 40.73-0.41 40.93-0.41 41.09-0.49 41.17-0.61L41.38-4.18C42.23-5.44 44.38-7.67 45.96-7.67 46.24-7.67 46.49-7.54 46.65-7.3 46.93-6.73 47.05-5.72 47.58-4.79 48.07-3.85 49.04-3.04 50.91-3.04 52.69-3.04 54.4-4.5 55.09-5.4 55.37-5.8 55.86-6.25 55.86-6.73 55.86-6.86 55.86-6.94 55.78-7.06 55.69-7.18 55.61-7.3 55.41-7.42 55.17-7.54 54.96-7.63 54.84-7.63 54.03-7.63 53.99-6.04 51.88-4.83 51.48-4.62 50.71-4.3 50.06-4.3 49.61-4.3 49.25-4.42 49-4.87 48.64-5.48 48.51-6.49 48.03-7.34 47.54-8.19 46.77-8.88 45.23-8.88L45.15-8.88C43.89-8.88 42.67-8.03 41.54-7.1 41.98-13.99 42.63-24.3 42.84-25.88L42.84-25.96C42.84-26.12 42.8-26.29 42.71-26.41 42.55-26.69 42.31-26.89 41.98-26.89 41.78-26.89 41.54-26.81 41.38-26.57 41.34-26.57 41.29-26.57 41.29-26.53L40.52-24.14C39.19-19.59 36.47-10.14 34.64-7.46 34.6-7.42 34.6-7.34 34.6-7.26 34.6-7.18 34.6-7.1 34.64-7.02 34.84-6.65 35.37-6.37 35.74-6.37 35.9-6.37 36.06-6.41 36.14-6.53ZM57.93-6.41C58.01-6.13 58.13-5.76 58.29-5.44 58.98-4.22 60.24-3.37 61.66-3.37 63.89-3.37 65.59-5.64 66.24-6.53 66.28-6.57 66.28-6.61 66.28-6.69 66.28-6.77 66.24-6.9 66.2-6.98 66.12-7.14 66-7.3 65.8-7.42 65.55-7.54 65.39-7.63 65.23-7.63 64.54-7.63 64.25-6.45 62.71-5.31 62.35-5.03 61.62-4.62 60.97-4.62 60.48-4.62 60.04-4.83 59.75-5.35 59.51-5.88 59.43-6.17 59.43-6.37 59.43-6.65 59.59-6.73 59.59-6.86 59.59-6.9 59.59-6.94 59.55-7.02 59.51-7.1 59.47-7.18 59.39-7.26 59.02-7.71 58.82-7.79 58.53-7.79 58.25-7.79 57.84-7.71 57.2-7.71 56.95-7.71 56.67-7.71 56.3-7.75 55.98-7.79 55.82-7.87 55.74-7.99 55.69-8.07 55.65-8.15 55.65-8.28 55.65-8.36 55.69-8.48 55.69-8.56L55.69-8.64C55.69-8.76 55.65-8.84 55.61-8.92 55.45-9.25 54.92-9.53 54.56-9.53 54.36-9.53 54.19-9.45 54.15-9.25 54.11-9.09 54.11-8.88 54.11-8.76 54.11-8.56 54.11-8.36 54.19-8.19L54.36-7.95C55.05-6.65 56.71-6.45 57.93-6.41ZM66.53-2.68C68.84-2.68 74.19-7.38 74.19-7.38 74.27-7.34 74.31-7.26 74.4-7.14 74.6-6.77 74.76-6.21 75.08-5.64 75.69-4.54 76.71-3.41 78.74-3.37L78.78-3.37C80.6-3.37 81.98-5.35 82.63-6.37 82.75-6.49 82.79-6.65 82.79-6.77 82.79-6.86 82.75-6.98 82.71-7.06 82.51-7.38 82.02-7.63 81.66-7.63 81.49-7.63 81.33-7.59 81.25-7.46 80.68-6.53 79.43-4.62 78.13-4.62L78.09-4.62C77.23-4.66 76.83-5.23 76.46-5.88L75.9-6.9C75.37-7.87 74.72-8.56 73.83-8.56 73.38-8.56 72.93-8.4 72.37-7.99 71.72-9.21 70.42-9.98 69.04-9.98 67.3-9.98 65.67-8.72 65.02-7.83 64.54-7.1 64.29-6.21 64.29-5.4 64.29-4.83 64.42-4.26 64.66-3.81 64.98-3.2 65.55-2.76 66.4-2.68ZM69.73-8.72C70.34-8.72 70.7-8.44 70.95-8.03 71.07-7.79 71.15-7.46 71.23-7.18 69.57-5.88 67.22-4.1 66-3.98 65.88-4.3 65.84-4.58 65.84-4.91 65.84-6.86 67.9-8.72 69.73-8.72ZM83.2-2.68C84.33-2.68 87.13-7.83 88.84-7.83 88.92-7.83 89.04-7.79 89.08-7.79 89.36-7.3 89.44-6.69 89.44-6.13 89.44-5.27 89.24-4.5 89.2-4.3 89.2-4.18 89.24-4.06 89.28-3.93 89.49-3.57 89.97-3.29 90.38-3.29 90.5-3.29 90.66-3.33 90.74-3.45 91.27-4.18 94.23-6.86 96.34-6.86 97.27-6.86 98.53-3.45 102.02-3.37L102.14-3.37C103.93-3.37 105.31-5.35 105.91-6.37 105.99-6.49 106.04-6.61 106.04-6.73 106.04-6.86 105.99-6.98 105.95-7.06 105.75-7.38 105.26-7.63 104.9-7.63 104.74-7.63 104.57-7.59 104.49-7.46 103.93-6.53 102.71-4.62 101.41-4.62L101.37-4.62C98.86-4.71 98.25-8.11 95.61-8.11 93.91-8.11 92.08-6.94 91.03-6.04 90.9-7.38 90.3-8.56 88.96-8.96 88.75-9.01 88.55-9.05 88.35-9.05 85.55-9.05 82.83-3.93 82.55-3.93 82.47-4.14 82.47-4.38 82.47-4.62 82.47-5.56 82.83-6.65 82.99-6.9 83.04-6.98 83.08-7.02 83.08-7.1 83.08-7.18 83.04-7.26 82.99-7.34 82.79-7.71 82.26-7.99 81.9-7.99 81.74-7.99 81.62-7.95 81.49-7.83 81.29-7.42 80.89-6.37 80.89-5.27 80.89-4.75 81.01-4.22 81.25-3.77 81.53-3.2 82.1-2.76 83.16-2.68ZM106.28-2.68C108.59-2.68 113.95-7.38 113.95-7.38 114.03-7.34 114.07-7.26 114.15-7.14 114.35-6.77 114.51-6.21 114.84-5.64 115.45-4.54 116.46-3.41 118.49-3.37L118.53-3.37C120.35-3.37 121.73-5.35 122.38-6.37 122.5-6.49 122.54-6.65 122.54-6.77 122.54-6.86 122.5-6.98 122.46-7.06 122.26-7.38 121.77-7.63 121.41-7.63 121.25-7.63 121.08-7.59 121-7.46 120.44-6.53 119.18-4.62 117.88-4.62L117.84-4.62C116.99-4.66 116.58-5.23 116.22-5.88L115.65-6.9C115.12-7.87 114.47-8.56 113.58-8.56 113.13-8.56 112.69-8.4 112.12-7.99 111.47-9.21 110.17-9.98 108.79-9.98 107.05-9.98 105.43-8.72 104.78-7.83 104.29-7.1 104.05-6.21 104.05-5.4 104.05-4.83 104.17-4.26 104.41-3.81 104.74-3.2 105.31-2.76 106.16-2.68ZM109.48-8.72C110.09-8.72 110.46-8.44 110.7-8.03 110.82-7.79 110.9-7.46 110.98-7.18 109.32-5.88 106.97-4.1 105.75-3.98 105.63-4.3 105.59-4.58 105.59-4.91 105.59-6.86 107.66-8.72 109.48-8.72ZM129.64-7.06C130.74-6.17 132-3.45 135.08-3.37L135.12-3.37C136.95-3.37 138.32-5.35 138.97-6.37 139.05-6.49 139.1-6.61 139.1-6.73 139.1-6.86 139.05-6.98 139.01-7.06 138.81-7.38 138.32-7.63 137.96-7.63 137.8-7.63 137.68-7.59 137.59-7.46 137.03-6.53 135.77-4.62 134.47-4.62L134.43-4.62C132.65-4.66 131.79-6.65 130.46-7.75 129.81-8.28 129.2-8.52 128.59-8.52 126.07-8.52 124.21-4.3 122.34-3.98 122.22-4.34 122.14-4.75 122.14-5.11 122.14-5.72 122.3-6.29 122.59-6.73 122.63-6.77 122.67-6.86 122.67-6.94 122.67-7.02 122.63-7.1 122.59-7.18 122.42-7.5 121.9-7.83 121.49-7.83 121.37-7.83 121.25-7.79 121.17-7.67 120.8-7.18 120.56-6.37 120.56-5.52 120.56-4.91 120.68-4.3 120.96-3.81 121.29-3.16 122.1-2.68 122.83-2.68 125.26-2.68 127.66-7.22 129.2-7.22 129.36-7.22 129.48-7.18 129.64-7.06ZM138.53-9.45C138.69-9.37 138.81-9.37 138.93-9.37 139.54-9.37 139.46-10.26 139.5-10.99L139.5-11.07C139.5-11.16 139.46-11.24 139.42-11.32 139.22-11.64 138.73-11.93 138.37-11.93 138.12-11.93 137.96-11.84 137.92-11.6 137.92-11.2 137.84-10.79 137.84-10.47 137.84-10.26 137.88-10.06 137.96-9.9 138.04-9.74 138.24-9.57 138.53-9.45ZM145.87-6.53C145.91-6.61 145.95-6.65 145.95-6.73 145.95-6.81 145.91-6.9 145.87-6.98 145.79-7.14 145.63-7.3 145.42-7.42 145.18-7.54 145.02-7.63 144.86-7.63 144.21-7.63 143.92-6.45 142.38-5.31 141.69-4.83 141.12-4.62 140.68-4.62 140.07-4.62 139.66-4.95 139.38-5.4 139.22-5.72 139.14-6.04 139.14-6.37 139.14-6.57 139.18-6.77 139.22-6.94 139.26-6.98 139.26-7.02 139.26-7.1 139.26-7.18 139.22-7.26 139.18-7.34 139.01-7.67 138.49-7.95 138.12-7.95 137.92-7.95 137.8-7.87 137.72-7.71 137.63-7.46 137.55-7.18 137.55-6.9 137.55-6.41 137.72-5.84 138-5.35 138.61-4.26 139.83-3.37 141.29-3.37 142.71-3.37 144.33-4.22 145.87-6.53Z" transform="translate(0.2800000011920929, 26.889999389648438)" stroke-width="0.1" stroke-linejoin="round"/></g> </g></g> <g fill-rule="" class="tp-slogan" fill="#f6b91e" transform="translate(5,33.790001678466794)"><rect x="0" height="1" y="5.060000419616699" width="42.57999801635742"/> <rect height="1" y="5.060000419616699" width="42.57999801635742" x="93.64999771118164"/> <g transform="translate(45.57999801635742,0)"><g transform="scale(1)"><path d="M9.11-3.54L9.28-2.04L9.30-1.90Q9.50-0.75 10.87-0.63L10.87-0.63L11.43-0.63L11.43 0Q10.42 0 9.98-0.19L9.98-0.19Q9.15-0.53 8.83-1.18L8.83-1.18L8.65-1.76Q8.59-2.23 8.50-3.09L8.50-3.09Q8.37-4.15 6.90-4.15L6.90-4.15Q7.03-3.96 7.15-3.81L7.15-3.81Q7.60-3.19 7.60-2.16L7.60-2.16Q7.60-1.13 6.57-0.39L6.57-0.39Q6.17-0.09 5.56 0L5.56 0L2.17 0Q1.42 0 0.62-0.84L0.62-0.84Q0.18-1.54 0.18-2.02L0.18-2.02L0.18-4.79L1.39-4.79L1.39-1.97Q1.39-1.05 2.33-0.70L2.33-0.70Q2.60-0.63 2.78-0.63L2.78-0.63L5.06-0.63Q6.55-0.63 6.57-2.18L6.57-2.18Q6.57-3.54 5.62-4.04L5.62-4.04Q5.49-4.09 5.39-4.11L5.39-4.11L4.51-4.15L4.51-4.79L7.17-4.79Q8.98-4.79 9.11-3.54L9.11-3.54ZM5.52 1.74L4.58 2.68L3.64 1.74L4.58 0.80L5.52 1.74ZM3.53 1.74L2.59 2.68L1.65 1.74L2.59 0.80L3.53 1.74ZM11.47 0L11.47 0L11.08 0L11.08-0.63L11.47-0.63Q13.00-0.75 13.20-1.90L13.20-1.90L13.22-2.04L13.22-4.79L14.30-4.79L14.30-3.26Q14.30-2.22 13.90-1.52L13.90-1.52Q13.40-0.62 12.36-0.19L12.36-0.19Q12.04-0.05 11.47 0ZM14.65-6.81L13.72-5.87L12.78-6.81L13.72-7.75L14.65-6.81ZM18.25 0L17.98 0Q17.53-0.01 17.09-0.19L17.09-0.19Q16.04-0.62 15.54-1.52L15.54-1.52Q15.14-2.22 15.14-3.26L15.14-3.26L15.14-7.75L16.22-7.75L16.22-2.04Q16.25-0.63 17.98-0.63L17.98-0.63L18.25-0.63L18.25 0ZM22.73 0L22.73 0Q21.76 0 21.02-0.73L21.02-0.73Q20.88-0.86 20.77-1.01L20.77-1.01Q20.30-0.49 19.58-0.19L19.58-0.19Q19.14 0 18.13 0L18.13 0L18.13-0.63L18.69-0.63Q20.06-0.75 20.26-1.90L20.26-1.90L20.29-2.47Q20.31-3.38 21.02-4.07L21.02-4.07Q21.76-4.79 22.73-4.79L22.73-4.79Q23.71-4.79 24.45-4.07L24.45-4.07Q25.18-3.34 25.18-2.40L25.18-2.40Q25.18-1.45 24.45-0.72Q23.71 0 22.73 0ZM22.75-0.63L22.75-0.63Q23.27-0.63 23.61-1.17Q23.95-1.70 23.95-2.40L23.95-2.40Q23.95-3.07 23.61-3.61Q23.27-4.15 22.75-4.15L22.75-4.15Q22.22-4.15 21.88-3.61Q21.54-3.07 21.54-2.40L21.54-2.40Q21.54-1.70 21.88-1.17Q22.22-0.63 22.75-0.63ZM28.14-4.79L28.14-2.03L28.14-2.04L28.17-1.90Q28.37-0.75 29.74-0.63L29.74-0.63L30.30-0.63L30.30 0Q29.29 0 28.85-0.19L28.85-0.19Q28.45-0.35 28.14-0.58L28.14-0.58L28.14-0.19Q28.14 0.52 27.74 1.10L27.74 1.10Q27.02 2.24 25.73 2.48L25.73 2.48L25.73 1.92Q26.17 1.87 26.64 1.41L26.64 1.41Q26.99 1.06 27.06 0.54L27.06 0.54L27.06-4.79L28.14-4.79ZM32.98-1.12L32.98-1.12Q33.44-1.12 33.74-1.58Q34.03-2.04 34.03-2.66L34.03-2.66Q34.03-3.25 33.74-3.72Q33.44-4.20 32.98-4.20L32.98-4.20Q32.53-4.20 32.23-3.72Q31.93-3.25 31.93-2.66L31.93-2.66Q31.93-2.04 32.23-1.58Q32.53-1.12 32.98-1.12ZM37.83-2.43L37.83-2.43L37.85-1.90Q38.06-0.75 39.42-0.63L39.42-0.63L39.81-0.63L39.81 0Q38.98 0 38.53-0.19L38.53-0.19Q37.79-0.49 37.32-1.04L37.32-1.04Q37.20-0.87 37.05-0.70L37.05-0.70Q36.43-0.22 36.16-0.17L36.16-0.17Q35.85 0 34.85 0L34.85 0L30.12 0L30.12-0.63L32.39-0.63Q31.89-0.78 31.48-1.19L31.48-1.19Q30.83-1.82 30.83-2.66L30.83-2.66Q30.83-3.49 31.47-4.13Q32.12-4.76 32.98-4.76L32.98-4.76Q33.84-4.76 34.49-4.13Q35.14-3.49 35.14-2.66L35.14-2.66Q35.14-1.82 34.49-1.19L34.49-1.19Q34.08-0.78 33.57-0.63L33.57-0.63L34.96-0.63Q36.81-0.86 36.81-2.43L36.81-2.43Q36.81-3.97 33.96-5.34L33.96-5.34L33.19-5.72L33.29-6.26L35.99-5.03L36.91-4.45Q37.83-3.60 37.83-2.43ZM44.85-7.69L41.20-4.79L42.85-4.79Q44.02-4.79 44.81-3.81L44.81-3.81Q45.25-3.19 45.25-2.16L45.25-2.16Q45.25-1.13 44.22-0.39L44.22-0.39Q43.82-0.09 43.21 0L43.21 0L39.63 0L39.63-0.63L42.71-0.63Q44.20-0.63 44.22-2.18L44.22-2.18Q44.22-3.54 43.27-4.04L43.27-4.04Q42.96-4.15 42.85-4.15L42.85-4.15L40.14-4.15L40.13-4.75L44.85-8.44L44.85-7.69Z" transform="translate(-0.17578125, 8.4375)"/></g></g></g></g><defs v-gra="od"/>
  </svg>
</svg>